STARTFONT 2.1
COMMENT
COMMENT Converted from OpenType font "CircularStd-Bold.otf" by "otf2bdf 3.0".
COMMENT
FONT -FreeType-Circular Std Bold-Medium-R-Normal--14-100-100-100-P-74-ISO10646-1
SIZE 10 100 100
FONTBOUNDINGBOX 21 16 0 -3
STARTPROPERTIES 19
FOUNDRY "FreeType"
FAMILY_NAME "Circular Std Bold"
WEIGHT_NAME "Medium"
SLANT "R"
SETWIDTH_NAME "Normal"
ADD_STYLE_NAME ""
PIXEL_SIZE 14
POINT_SIZE 100
RESOLUTION_X 100
RESOLUTION_Y 100
SPACING "P"
AVERAGE_WIDTH 74
CHARSET_REGISTRY "ISO10646"
CHARSET_ENCODING "1"
FONT_ASCENT 13
FONT_DESCENT 3
COPYRIGHT "Generated in 2013 by FontLab Studio. Copyright info pending."
_OTF_FONTFILE "CircularStd-Bold.otf"
_OTF_PSNAME "CircularStd-Bold"
ENDPROPERTIES
CHARS 332
STARTCHAR 0000
ENCODING 0
SWIDTH 0 0
DWIDTH 0 0
BBX 0 0 0 0
BITMAP
ENDCHAR
STARTCHAR 000D
ENCODING 13
SWIDTH 216 0
DWIDTH 3 0
BBX 0 0 0 0
BITMAP
ENDCHAR
STARTCHAR 0020
ENCODING 32
SWIDTH 216 0
DWIDTH 3 0
BBX 0 0 0 0
BITMAP
ENDCHAR
STARTCHAR 0021
ENCODING 33
SWIDTH 360 0
DWIDTH 5 0
BBX 2 10 1 0
BITMAP
C0
C0
C0
C0
C0
40
40
00
C0
C0
ENDCHAR
STARTCHAR 0022
ENCODING 34
SWIDTH 432 0
DWIDTH 6 0
BBX 4 4 1 5
BITMAP
B0
B0
B0
90
ENDCHAR
STARTCHAR 0023
ENCODING 35
SWIDTH 720 0
DWIDTH 10 0
BBX 9 9 1 0
BITMAP
1200
3200
FF80
2600
2400
2400
FF00
6C00
4C00
ENDCHAR
STARTCHAR 0024
ENCODING 36
SWIDTH 576 0
DWIDTH 8 0
BBX 7 13 1 -2
BITMAP
10
10
7C
CC
C0
E0
7C
1C
86
CC
7C
10
10
ENDCHAR
STARTCHAR 0025
ENCODING 37
SWIDTH 864 0
DWIDTH 12 0
BBX 10 9 1 0
BITMAP
E180
B300
9200
F400
0C00
1BC0
1240
3240
6180
ENDCHAR
STARTCHAR 0026
ENCODING 38
SWIDTH 720 0
DWIDTH 10 0
BBX 8 10 1 0
BITMAP
38
7C
CC
7C
79
79
DF
CE
FF
7B
ENDCHAR
STARTCHAR 0027
ENCODING 39
SWIDTH 216 0
DWIDTH 3 0
BBX 1 4 1 5
BITMAP
80
80
80
80
ENDCHAR
STARTCHAR 0028
ENCODING 40
SWIDTH 360 0
DWIDTH 5 0
BBX 3 13 1 -2
BITMAP
20
60
40
C0
80
80
80
80
80
C0
40
60
20
ENDCHAR
STARTCHAR 0029
ENCODING 41
SWIDTH 360 0
DWIDTH 5 0
BBX 4 13 0 -2
BITMAP
C0
40
60
20
30
30
30
30
30
20
60
40
C0
ENDCHAR
STARTCHAR 002A
ENCODING 42
SWIDTH 432 0
DWIDTH 6 0
BBX 5 5 1 5
BITMAP
60
F8
F8
70
D0
ENDCHAR
STARTCHAR 002B
ENCODING 43
SWIDTH 576 0
DWIDTH 8 0
BBX 6 7 1 1
BITMAP
30
30
30
FC
FC
30
30
ENDCHAR
STARTCHAR 002C
ENCODING 44
SWIDTH 288 0
DWIDTH 4 0
BBX 2 4 1 -2
BITMAP
C0
C0
40
80
ENDCHAR
STARTCHAR 002D
ENCODING 45
SWIDTH 360 0
DWIDTH 5 0
BBX 4 2 1 3
BITMAP
F0
F0
ENDCHAR
STARTCHAR 002E
ENCODING 46
SWIDTH 288 0
DWIDTH 4 0
BBX 2 2 1 0
BITMAP
C0
C0
ENDCHAR
STARTCHAR 002F
ENCODING 47
SWIDTH 504 0
DWIDTH 7 0
BBX 6 10 0 0
BITMAP
04
0C
08
18
10
30
20
60
40
C0
ENDCHAR
STARTCHAR 0030
ENCODING 48
SWIDTH 648 0
DWIDTH 9 0
BBX 7 9 1 0
BITMAP
78
FC
C6
C6
86
C6
C6
FC
78
ENDCHAR
STARTCHAR 0031
ENCODING 49
SWIDTH 432 0
DWIDTH 6 0
BBX 4 9 0 0
BITMAP
10
30
F0
10
10
10
10
10
10
ENDCHAR
STARTCHAR 0032
ENCODING 50
SWIDTH 576 0
DWIDTH 8 0
BBX 7 9 0 0
BITMAP
3C
7E
46
46
0E
38
70
7E
FE
ENDCHAR
STARTCHAR 0033
ENCODING 51
SWIDTH 576 0
DWIDTH 8 0
BBX 7 9 0 0
BITMAP
7E
7E
0C
38
1E
06
C6
7E
3C
ENDCHAR
STARTCHAR 0034
ENCODING 52
SWIDTH 576 0
DWIDTH 8 0
BBX 8 9 0 0
BITMAP
0E
1E
36
36
66
FF
FF
06
06
ENDCHAR
STARTCHAR 0035
ENCODING 53
SWIDTH 576 0
DWIDTH 8 0
BBX 7 9 0 0
BITMAP
3E
7E
60
7C
7E
06
C6
7E
3C
ENDCHAR
STARTCHAR 0036
ENCODING 54
SWIDTH 576 0
DWIDTH 8 0
BBX 7 9 1 0
BITMAP
3C
7C
C0
F8
FC
C6
C6
FC
78
ENDCHAR
STARTCHAR 0037
ENCODING 55
SWIDTH 504 0
DWIDTH 7 0
BBX 7 9 0 0
BITMAP
FE
FE
0C
18
18
30
30
30
60
ENDCHAR
STARTCHAR 0038
ENCODING 56
SWIDTH 576 0
DWIDTH 8 0
BBX 6 9 1 0
BITMAP
78
FC
CC
CC
78
CC
8C
FC
78
ENDCHAR
STARTCHAR 0039
ENCODING 57
SWIDTH 576 0
DWIDTH 8 0
BBX 8 9 0 0
BITMAP
3C
7E
46
C6
7F
3A
06
7C
78
ENDCHAR
STARTCHAR 003A
ENCODING 58
SWIDTH 288 0
DWIDTH 4 0
BBX 2 7 1 0
BITMAP
C0
C0
00
00
00
C0
C0
ENDCHAR
STARTCHAR 003B
ENCODING 59
SWIDTH 288 0
DWIDTH 4 0
BBX 2 9 1 -2
BITMAP
C0
C0
C0
00
00
C0
C0
40
C0
ENDCHAR
STARTCHAR 003C
ENCODING 60
SWIDTH 504 0
DWIDTH 7 0
BBX 6 8 0 0
BITMAP
04
0C
38
E0
E0
38
0C
04
ENDCHAR
STARTCHAR 003D
ENCODING 61
SWIDTH 576 0
DWIDTH 8 0
BBX 7 4 1 2
BITMAP
FE
FE
00
FE
ENDCHAR
STARTCHAR 003E
ENCODING 62
SWIDTH 504 0
DWIDTH 7 0
BBX 6 8 0 0
BITMAP
80
E0
38
0C
0C
38
E0
80
ENDCHAR
STARTCHAR 003F
ENCODING 63
SWIDTH 504 0
DWIDTH 7 0
BBX 7 10 0 0
BITMAP
3C
7E
C6
C6
0C
18
10
00
38
10
ENDCHAR
STARTCHAR 0040
ENCODING 64
SWIDTH 792 0
DWIDTH 11 0
BBX 10 11 1 -1
BITMAP
1E00
7380
C080
9EC0
B240
B240
B680
9F80
C000
7300
1E00
ENDCHAR
STARTCHAR 0041
ENCODING 65
SWIDTH 720 0
DWIDTH 10 0
BBX 10 10 0 0
BITMAP
0C00
1E00
1E00
1E00
3300
3300
7F80
7F80
6180
C0C0
ENDCHAR
STARTCHAR 0042
ENCODING 66
SWIDTH 576 0
DWIDTH 8 0
BBX 7 10 1 0
BITMAP
FC
FC
C6
C4
FC
FC
C6
C6
FE
FC
ENDCHAR
STARTCHAR 0043
ENCODING 67
SWIDTH 792 0
DWIDTH 11 0
BBX 9 10 1 0
BITMAP
3E00
7F00
E380
C100
C000
C000
C100
E380
7F00
3E00
ENDCHAR
STARTCHAR 0044
ENCODING 68
SWIDTH 720 0
DWIDTH 10 0
BBX 8 10 1 0
BITMAP
FC
FE
C3
C3
C3
C3
C3
C3
FE
FC
ENDCHAR
STARTCHAR 0045
ENCODING 69
SWIDTH 576 0
DWIDTH 8 0
BBX 6 10 1 0
BITMAP
FC
FC
C0
C0
FC
FC
C0
C0
FC
FC
ENDCHAR
STARTCHAR 0046
ENCODING 70
SWIDTH 576 0
DWIDTH 8 0
BBX 6 10 1 0
BITMAP
FC
FC
C0
C0
FC
FC
C0
C0
C0
C0
ENDCHAR
STARTCHAR 0047
ENCODING 71
SWIDTH 792 0
DWIDTH 11 0
BBX 9 10 1 0
BITMAP
3E00
7F00
E380
C100
C000
8F80
CF80
C180
7F80
3D80
ENDCHAR
STARTCHAR 0048
ENCODING 72
SWIDTH 720 0
DWIDTH 10 0
BBX 8 10 1 0
BITMAP
C3
C3
C3
C3
FF
FF
C3
C3
C3
C3
ENDCHAR
STARTCHAR 0049
ENCODING 73
SWIDTH 288 0
DWIDTH 4 0
BBX 2 10 1 0
BITMAP
C0
C0
C0
C0
C0
C0
C0
C0
C0
C0
ENDCHAR
STARTCHAR 004A
ENCODING 74
SWIDTH 576 0
DWIDTH 8 0
BBX 7 10 0 0
BITMAP
06
06
06
06
06
06
C6
C6
7C
38
ENDCHAR
STARTCHAR 004B
ENCODING 75
SWIDTH 720 0
DWIDTH 10 0
BBX 8 10 1 0
BITMAP
C3
C6
CC
D8
F8
F8
EC
CE
C6
C3
ENDCHAR
STARTCHAR 004C
ENCODING 76
SWIDTH 576 0
DWIDTH 8 0
BBX 6 10 1 0
BITMAP
C0
C0
C0
C0
C0
C0
C0
C0
FC
FC
ENDCHAR
STARTCHAR 004D
ENCODING 77
SWIDTH 936 0
DWIDTH 13 0
BBX 11 10 1 0
BITMAP
E0E0
E0E0
F1E0
F1E0
D1E0
DB60
DB60
CE60
CE60
C660
ENDCHAR
STARTCHAR 004E
ENCODING 78
SWIDTH 792 0
DWIDTH 11 0
BBX 9 10 1 0
BITMAP
E180
E180
F180
F980
D980
CD80
CF80
C780
C380
C380
ENDCHAR
STARTCHAR 004F
ENCODING 79
SWIDTH 792 0
DWIDTH 11 0
BBX 10 10 1 0
BITMAP
3E00
7F00
E180
C180
C0C0
C0C0
C180
E180
7F00
3E00
ENDCHAR
STARTCHAR 0050
ENCODING 80
SWIDTH 576 0
DWIDTH 8 0
BBX 7 10 1 0
BITMAP
FC
FE
C6
C6
FE
FC
C0
C0
C0
C0
ENDCHAR
STARTCHAR 0051
ENCODING 81
SWIDTH 792 0
DWIDTH 11 0
BBX 10 11 1 -1
BITMAP
3E00
7F00
E180
C180
C0C0
C4C0
C780
E780
7F80
3FC0
0080
ENDCHAR
STARTCHAR 0052
ENCODING 82
SWIDTH 648 0
DWIDTH 9 0
BBX 7 10 1 0
BITMAP
FC
FE
C6
C6
FE
FC
D8
CC
CC
C6
ENDCHAR
STARTCHAR 0053
ENCODING 83
SWIDTH 576 0
DWIDTH 8 0
BBX 7 10 1 0
BITMAP
78
FC
C6
C0
F8
3C
06
C6
FC
78
ENDCHAR
STARTCHAR 0054
ENCODING 84
SWIDTH 648 0
DWIDTH 9 0
BBX 8 10 0 0
BITMAP
FF
FF
18
18
18
18
18
18
18
18
ENDCHAR
STARTCHAR 0055
ENCODING 85
SWIDTH 720 0
DWIDTH 10 0
BBX 8 10 1 0
BITMAP
C3
C3
C3
C3
C3
C3
C3
C6
7E
3C
ENDCHAR
STARTCHAR 0056
ENCODING 86
SWIDTH 720 0
DWIDTH 10 0
BBX 9 10 0 0
BITMAP
C180
6180
6300
6300
3300
3600
3600
1E00
1C00
0C00
ENDCHAR
STARTCHAR 0057
ENCODING 87
SWIDTH 1008 0
DWIDTH 14 0
BBX 14 10 0 0
BITMAP
C30C
638C
6798
6798
66D8
3CD8
3CF0
3C70
3870
1860
ENDCHAR
STARTCHAR 0058
ENCODING 88
SWIDTH 648 0
DWIDTH 9 0
BBX 8 10 1 0
BITMAP
C7
C6
6C
7C
38
38
7C
6C
C6
C7
ENDCHAR
STARTCHAR 0059
ENCODING 89
SWIDTH 648 0
DWIDTH 9 0
BBX 9 10 0 0
BITMAP
E180
6300
3600
3600
1C00
1C00
0800
0800
0800
0800
ENDCHAR
STARTCHAR 005A
ENCODING 90
SWIDTH 648 0
DWIDTH 9 0
BBX 7 10 1 0
BITMAP
FE
FE
0E
1C
38
30
60
E0
FE
FE
ENDCHAR
STARTCHAR 005B
ENCODING 91
SWIDTH 288 0
DWIDTH 4 0
BBX 3 13 1 -2
BITMAP
E0
C0
C0
C0
C0
C0
C0
C0
C0
C0
C0
C0
E0
ENDCHAR
STARTCHAR 005C
ENCODING 92
SWIDTH 504 0
DWIDTH 7 0
BBX 6 10 0 0
BITMAP
C0
40
60
20
30
10
18
08
0C
04
ENDCHAR
STARTCHAR 005D
ENCODING 93
SWIDTH 288 0
DWIDTH 4 0
BBX 3 13 0 -2
BITMAP
E0
20
20
20
20
20
20
20
20
20
20
20
E0
ENDCHAR
STARTCHAR 005E
ENCODING 94
SWIDTH 504 0
DWIDTH 7 0
BBX 7 5 0 5
BITMAP
18
38
2C
64
C6
ENDCHAR
STARTCHAR 005F
ENCODING 95
SWIDTH 504 0
DWIDTH 7 0
BBX 7 2 0 -2
BITMAP
FE
FE
ENDCHAR
STARTCHAR 0060
ENCODING 96
SWIDTH 288 0
DWIDTH 4 0
BBX 2 2 1 8
BITMAP
C0
40
ENDCHAR
STARTCHAR 0061
ENCODING 97
SWIDTH 504 0
DWIDTH 7 0
BBX 6 7 1 0
BITMAP
78
F8
0C
FC
CC
DC
EC
ENDCHAR
STARTCHAR 0062
ENCODING 98
SWIDTH 648 0
DWIDTH 9 0
BBX 7 10 1 0
BITMAP
C0
C0
C0
FC
FE
C6
C6
C6
EC
FC
ENDCHAR
STARTCHAR 0063
ENCODING 99
SWIDTH 576 0
DWIDTH 8 0
BBX 7 7 0 0
BITMAP
3C
7E
66
C0
60
7E
3C
ENDCHAR
STARTCHAR 0064
ENCODING 100
SWIDTH 648 0
DWIDTH 9 0
BBX 8 10 0 0
BITMAP
02
02
02
3A
7E
66
C2
42
7E
3B
ENDCHAR
STARTCHAR 0065
ENCODING 101
SWIDTH 576 0
DWIDTH 8 0
BBX 7 7 0 0
BITMAP
3C
7E
46
FE
40
7E
3C
ENDCHAR
STARTCHAR 0066
ENCODING 102
SWIDTH 360 0
DWIDTH 5 0
BBX 5 11 0 0
BITMAP
18
38
60
60
F8
F8
60
60
60
60
60
ENDCHAR
STARTCHAR 0067
ENCODING 103
SWIDTH 576 0
DWIDTH 8 0
BBX 7 10 0 -3
BITMAP
3A
7E
66
C2
66
7E
12
46
7E
3C
ENDCHAR
STARTCHAR 0068
ENCODING 104
SWIDTH 576 0
DWIDTH 8 0
BBX 6 10 1 0
BITMAP
C0
C0
C0
F8
FC
CC
CC
CC
CC
CC
ENDCHAR
STARTCHAR 0069
ENCODING 105
SWIDTH 288 0
DWIDTH 4 0
BBX 2 10 1 0
BITMAP
C0
C0
00
C0
C0
C0
C0
C0
C0
C0
ENDCHAR
STARTCHAR 006A
ENCODING 106
SWIDTH 288 0
DWIDTH 4 0
BBX 3 13 0 -3
BITMAP
60
60
00
60
60
60
60
60
60
60
60
E0
C0
ENDCHAR
STARTCHAR 006B
ENCODING 107
SWIDTH 576 0
DWIDTH 8 0
BBX 6 10 1 0
BITMAP
C0
C0
C0
CC
D8
F0
F0
D8
DC
CC
ENDCHAR
STARTCHAR 006C
ENCODING 108
SWIDTH 288 0
DWIDTH 4 0
BBX 2 10 1 0
BITMAP
C0
C0
C0
C0
C0
C0
C0
C0
C0
C0
ENDCHAR
STARTCHAR 006D
ENCODING 109
SWIDTH 864 0
DWIDTH 12 0
BBX 10 7 1 0
BITMAP
FBC0
FFC0
CC40
CC40
CC40
CC40
CC40
ENDCHAR
STARTCHAR 006E
ENCODING 110
SWIDTH 576 0
DWIDTH 8 0
BBX 6 7 1 0
BITMAP
F8
FC
CC
CC
CC
CC
CC
ENDCHAR
STARTCHAR 006F
ENCODING 111
SWIDTH 576 0
DWIDTH 8 0
BBX 8 7 0 0
BITMAP
3C
7E
62
C3
62
7E
3C
ENDCHAR
STARTCHAR 0070
ENCODING 112
SWIDTH 648 0
DWIDTH 9 0
BBX 7 10 1 -3
BITMAP
FC
FE
C6
C6
C6
FC
FC
C0
C0
C0
ENDCHAR
STARTCHAR 0071
ENCODING 113
SWIDTH 576 0
DWIDTH 8 0
BBX 8 10 0 -3
BITMAP
3B
7F
67
C3
67
7F
3B
03
03
03
ENDCHAR
STARTCHAR 0072
ENCODING 114
SWIDTH 360 0
DWIDTH 5 0
BBX 4 7 1 0
BITMAP
F0
F0
C0
C0
C0
C0
C0
ENDCHAR
STARTCHAR 0073
ENCODING 115
SWIDTH 432 0
DWIDTH 6 0
BBX 5 7 1 0
BITMAP
F0
D8
C0
F0
18
D8
F0
ENDCHAR
STARTCHAR 0074
ENCODING 116
SWIDTH 360 0
DWIDTH 5 0
BBX 5 9 0 0
BITMAP
20
60
F8
F8
60
60
60
78
38
ENDCHAR
STARTCHAR 0075
ENCODING 117
SWIDTH 576 0
DWIDTH 8 0
BBX 6 7 1 0
BITMAP
CC
CC
CC
CC
CC
FC
7C
ENDCHAR
STARTCHAR 0076
ENCODING 118
SWIDTH 576 0
DWIDTH 8 0
BBX 7 7 0 0
BITMAP
C6
66
64
2C
3C
38
18
ENDCHAR
STARTCHAR 0077
ENCODING 119
SWIDTH 864 0
DWIDTH 12 0
BBX 11 7 0 0
BITMAP
C660
6E60
6F60
6B40
39C0
39C0
3180
ENDCHAR
STARTCHAR 0078
ENCODING 120
SWIDTH 504 0
DWIDTH 7 0
BBX 6 7 1 0
BITMAP
CC
D8
70
30
78
D8
CC
ENDCHAR
STARTCHAR 0079
ENCODING 121
SWIDTH 576 0
DWIDTH 8 0
BBX 7 10 0 -3
BITMAP
C6
66
66
3C
3C
18
18
30
30
30
ENDCHAR
STARTCHAR 007A
ENCODING 122
SWIDTH 504 0
DWIDTH 7 0
BBX 5 7 1 0
BITMAP
F8
F8
30
60
E0
F8
F8
ENDCHAR
STARTCHAR 007B
ENCODING 123
SWIDTH 360 0
DWIDTH 5 0
BBX 4 13 1 -2
BITMAP
30
60
60
60
60
C0
C0
60
60
60
60
60
30
ENDCHAR
STARTCHAR 007C
ENCODING 124
SWIDTH 288 0
DWIDTH 4 0
BBX 2 13 1 -2
BITMAP
C0
C0
C0
C0
C0
C0
C0
C0
C0
C0
C0
C0
C0
ENDCHAR
STARTCHAR 007D
ENCODING 125
SWIDTH 360 0
DWIDTH 5 0
BBX 5 13 0 -2
BITMAP
E0
60
20
20
20
38
38
20
20
20
20
60
C0
ENDCHAR
STARTCHAR 007E
ENCODING 126
SWIDTH 576 0
DWIDTH 8 0
BBX 7 3 1 3
BITMAP
40
FE
9C
ENDCHAR
STARTCHAR 00A0
ENCODING 160
SWIDTH 216 0
DWIDTH 3 0
BBX 0 0 0 0
BITMAP
ENDCHAR
STARTCHAR 00A1
ENCODING 161
SWIDTH 288 0
DWIDTH 4 0
BBX 2 10 1 -3
BITMAP
C0
C0
00
C0
C0
C0
C0
C0
C0
C0
ENDCHAR
STARTCHAR 00A2
ENCODING 162
SWIDTH 576 0
DWIDTH 8 0
BBX 6 9 1 0
BITMAP
30
70
FC
C8
80
C8
FC
78
30
ENDCHAR
STARTCHAR 00A3
ENCODING 163
SWIDTH 576 0
DWIDTH 8 0
BBX 7 9 1 0
BITMAP
38
7C
C4
40
F8
60
66
FE
FC
ENDCHAR
STARTCHAR 00A4
ENCODING 164
SWIDTH 576 0
DWIDTH 8 0
BBX 6 7 1 0
BITMAP
84
FC
CC
C4
CC
FC
84
ENDCHAR
STARTCHAR 00A5
ENCODING 165
SWIDTH 648 0
DWIDTH 9 0
BBX 7 9 1 0
BITMAP
C6
CC
6C
78
FE
30
FE
30
30
ENDCHAR
STARTCHAR 00A6
ENCODING 166
SWIDTH 288 0
DWIDTH 4 0
BBX 2 13 1 -2
BITMAP
C0
C0
C0
C0
C0
00
00
00
C0
C0
C0
C0
C0
ENDCHAR
STARTCHAR 00A7
ENCODING 167
SWIDTH 576 0
DWIDTH 8 0
BBX 6 13 1 -3
BITMAP
78
FC
CC
E0
70
DC
CC
EC
78
1C
CC
FC
78
ENDCHAR
STARTCHAR 00A8
ENCODING 168
SWIDTH 432 0
DWIDTH 6 0
BBX 5 2 0 8
BITMAP
58
D8
ENDCHAR
STARTCHAR 00A9
ENCODING 169
SWIDTH 792 0
DWIDTH 11 0
BBX 10 10 1 0
BITMAP
3E00
6300
DC80
B6C0
A040
A040
B6C0
DC80
6300
3E00
ENDCHAR
STARTCHAR 00AA
ENCODING 170
SWIDTH 432 0
DWIDTH 6 0
BBX 4 5 1 4
BITMAP
F0
90
F0
90
F0
ENDCHAR
STARTCHAR 00AB
ENCODING 171
SWIDTH 504 0
DWIDTH 7 0
BBX 6 6 1 1
BITMAP
6C
D8
90
90
D8
6C
ENDCHAR
STARTCHAR 00AC
ENCODING 172
SWIDTH 576 0
DWIDTH 8 0
BBX 6 4 1 2
BITMAP
FC
FC
04
04
ENDCHAR
STARTCHAR 00AD
ENCODING 173
SWIDTH 360 0
DWIDTH 5 0
BBX 4 2 1 3
BITMAP
F0
F0
ENDCHAR
STARTCHAR 00AE
ENCODING 174
SWIDTH 792 0
DWIDTH 11 0
BBX 10 10 1 0
BITMAP
3E00
6100
9C80
96C0
9640
9C40
94C0
D680
6300
3E00
ENDCHAR
STARTCHAR 00AF
ENCODING 175
SWIDTH 360 0
DWIDTH 5 0
BBX 4 1 0 8
BITMAP
F0
ENDCHAR
STARTCHAR 00B0
ENCODING 176
SWIDTH 360 0
DWIDTH 5 0
BBX 5 4 0 5
BITMAP
70
D8
D8
70
ENDCHAR
STARTCHAR 00B1
ENCODING 177
SWIDTH 576 0
DWIDTH 8 0
BBX 6 8 1 0
BITMAP
30
30
FC
3C
30
00
FC
FC
ENDCHAR
STARTCHAR 00B2
ENCODING 178
SWIDTH 360 0
DWIDTH 5 0
BBX 4 5 1 5
BITMAP
E0
B0
20
C0
F0
ENDCHAR
STARTCHAR 00B3
ENCODING 179
SWIDTH 432 0
DWIDTH 6 0
BBX 4 5 1 5
BITMAP
F0
20
70
90
F0
ENDCHAR
STARTCHAR 00B4
ENCODING 180
SWIDTH 288 0
DWIDTH 4 0
BBX 2 2 1 8
BITMAP
C0
80
ENDCHAR
STARTCHAR 00B5
ENCODING 181
SWIDTH 576 0
DWIDTH 8 0
BBX 6 10 1 -3
BITMAP
CC
CC
CC
CC
CC
FC
FC
C0
C0
C0
ENDCHAR
STARTCHAR 00B6
ENCODING 182
SWIDTH 648 0
DWIDTH 9 0
BBX 9 13 0 -3
BITMAP
3F80
7B00
FB00
FB00
7B00
3B00
1B00
1B00
1B00
1B00
1B00
1B00
1B00
ENDCHAR
STARTCHAR 00B7
ENCODING 183
SWIDTH 288 0
DWIDTH 4 0
BBX 2 2 1 3
BITMAP
C0
C0
ENDCHAR
STARTCHAR 00B8
ENCODING 184
SWIDTH 288 0
DWIDTH 4 0
BBX 4 3 0 -3
BITMAP
60
70
F0
ENDCHAR
STARTCHAR 00B9
ENCODING 185
SWIDTH 288 0
DWIDTH 4 0
BBX 2 5 1 5
BITMAP
40
C0
40
40
40
ENDCHAR
STARTCHAR 00BA
ENCODING 186
SWIDTH 504 0
DWIDTH 7 0
BBX 5 5 1 4
BITMAP
70
D8
98
D8
70
ENDCHAR
STARTCHAR 00BB
ENCODING 187
SWIDTH 504 0
DWIDTH 7 0
BBX 6 6 1 1
BITMAP
90
D8
6C
6C
D8
90
ENDCHAR
STARTCHAR 00BC
ENCODING 188
SWIDTH 792 0
DWIDTH 11 0
BBX 10 9 1 0
BITMAP
4300
C200
4600
4C00
4980
1380
3580
67C0
4180
ENDCHAR
STARTCHAR 00BD
ENCODING 189
SWIDTH 792 0
DWIDTH 11 0
BBX 10 9 1 0
BITMAP
4300
C200
4600
4C00
4B80
12C0
3180
6300
43C0
ENDCHAR
STARTCHAR 00BE
ENCODING 190
SWIDTH 864 0
DWIDTH 12 0
BBX 11 9 1 0
BITMAP
F180
2100
7300
9600
F4C0
0DC0
1AC0
13E0
20C0
ENDCHAR
STARTCHAR 00BF
ENCODING 191
SWIDTH 504 0
DWIDTH 7 0
BBX 7 10 0 -3
BITMAP
18
18
00
10
30
60
C4
C6
7C
78
ENDCHAR
STARTCHAR 00C0
ENCODING 192
SWIDTH 720 0
DWIDTH 10 0
BBX 10 13 0 0
BITMAP
1800
0C00
0000
0C00
1E00
1E00
1E00
3300
3300
7F80
7F80
6180
C0C0
ENDCHAR
STARTCHAR 00C1
ENCODING 193
SWIDTH 720 0
DWIDTH 10 0
BBX 10 13 0 0
BITMAP
0600
0C00
0000
0C00
1E00
1E00
1E00
3300
3300
7F80
7F80
6180
C0C0
ENDCHAR
STARTCHAR 00C2
ENCODING 194
SWIDTH 720 0
DWIDTH 10 0
BBX 10 13 0 0
BITMAP
0C00
1E00
0000
0C00
1E00
1E00
1E00
3300
3300
7F80
7F80
6180
C0C0
ENDCHAR
STARTCHAR 00C3
ENCODING 195
SWIDTH 720 0
DWIDTH 10 0
BBX 10 13 0 0
BITMAP
1800
1E00
0600
0C00
1E00
1E00
1E00
3300
3300
7F80
7F80
6180
C0C0
ENDCHAR
STARTCHAR 00C4
ENCODING 196
SWIDTH 720 0
DWIDTH 10 0
BBX 10 13 0 0
BITMAP
3300
3300
0000
0C00
1E00
1E00
1E00
3300
3300
7F80
7F80
6180
C0C0
ENDCHAR
STARTCHAR 00C5
ENCODING 197
SWIDTH 720 0
DWIDTH 10 0
BBX 10 12 0 0
BITMAP
0C00
1200
0C00
1E00
1E00
1E00
3300
3300
7F80
7F80
6180
C0C0
ENDCHAR
STARTCHAR 00C6
ENCODING 198
SWIDTH 1080 0
DWIDTH 15 0
BBX 14 10 0 0
BITMAP
03FC
03FC
06C0
0EC0
0CFC
18FC
3FC0
3FC0
60FC
E0FC
ENDCHAR
STARTCHAR 00C7
ENCODING 199
SWIDTH 792 0
DWIDTH 11 0
BBX 9 13 1 -3
BITMAP
3E00
7F00
E380
C100
C000
C000
C100
E180
7F00
3E00
0800
0400
1C00
ENDCHAR
STARTCHAR 00C8
ENCODING 200
SWIDTH 576 0
DWIDTH 8 0
BBX 6 13 1 0
BITMAP
60
30
00
FC
FC
C0
C0
FC
FC
C0
C0
FC
FC
ENDCHAR
STARTCHAR 00C9
ENCODING 201
SWIDTH 576 0
DWIDTH 8 0
BBX 6 13 1 0
BITMAP
1C
10
00
FC
FC
C0
C0
FC
FC
C0
C0
FC
FC
ENDCHAR
STARTCHAR 00CA
ENCODING 202
SWIDTH 576 0
DWIDTH 8 0
BBX 6 13 1 0
BITMAP
30
68
00
FC
FC
C0
C0
FC
FC
C0
C0
FC
FC
ENDCHAR
STARTCHAR 00CB
ENCODING 203
SWIDTH 576 0
DWIDTH 8 0
BBX 6 13 1 0
BITMAP
6C
6C
00
FC
FC
C0
C0
FC
FC
C0
C0
FC
FC
ENDCHAR
STARTCHAR 00CC
ENCODING 204
SWIDTH 288 0
DWIDTH 4 0
BBX 3 13 0 0
BITMAP
C0
60
00
60
60
60
60
60
60
60
60
60
60
ENDCHAR
STARTCHAR 00CD
ENCODING 205
SWIDTH 288 0
DWIDTH 4 0
BBX 4 13 1 0
BITMAP
70
40
00
C0
C0
C0
C0
C0
C0
C0
C0
C0
C0
ENDCHAR
STARTCHAR 00CE
ENCODING 206
SWIDTH 288 0
DWIDTH 4 0
BBX 4 13 0 0
BITMAP
60
D0
00
60
60
60
60
60
60
60
60
60
60
ENDCHAR
STARTCHAR 00CF
ENCODING 207
SWIDTH 288 0
DWIDTH 4 0
BBX 4 13 0 0
BITMAP
D0
D0
00
60
60
60
60
60
60
60
60
60
60
ENDCHAR
STARTCHAR 00D0
ENCODING 208
SWIDTH 720 0
DWIDTH 10 0
BBX 10 10 0 0
BITMAP
7E00
7F80
6180
60C0
F8C0
60C0
60C0
6180
7F80
7E00
ENDCHAR
STARTCHAR 00D1
ENCODING 209
SWIDTH 792 0
DWIDTH 11 0
BBX 9 13 1 0
BITMAP
3000
3E00
0C00
E180
E180
F180
F980
D980
CD80
CF80
C780
C380
C380
ENDCHAR
STARTCHAR 00D2
ENCODING 210
SWIDTH 792 0
DWIDTH 11 0
BBX 10 12 1 0
BITMAP
3000
1800
3E00
7F00
E180
C180
C0C0
C0C0
C180
E180
7F00
3E00
ENDCHAR
STARTCHAR 00D3
ENCODING 211
SWIDTH 792 0
DWIDTH 11 0
BBX 10 12 1 0
BITMAP
0600
0C00
3E00
7F00
E180
C180
C0C0
C0C0
C180
E180
7F00
3E00
ENDCHAR
STARTCHAR 00D4
ENCODING 212
SWIDTH 792 0
DWIDTH 11 0
BBX 10 12 1 0
BITMAP
1C00
3600
3E00
7F00
E180
C180
C0C0
C0C0
C180
E180
7F00
3E00
ENDCHAR
STARTCHAR 00D5
ENCODING 213
SWIDTH 792 0
DWIDTH 11 0
BBX 10 12 1 0
BITMAP
1A00
2C00
3E00
7F00
E180
C180
C0C0
C0C0
C180
E180
7F00
3E00
ENDCHAR
STARTCHAR 00D6
ENCODING 214
SWIDTH 792 0
DWIDTH 11 0
BBX 10 12 1 0
BITMAP
6300
6300
3E00
7F00
E180
C180
C0C0
C0C0
C180
E180
7F00
3E00
ENDCHAR
STARTCHAR 00D7
ENCODING 215
SWIDTH 576 0
DWIDTH 8 0
BBX 6 7 1 1
BITMAP
84
CC
78
30
78
CC
84
ENDCHAR
STARTCHAR 00D8
ENCODING 216
SWIDTH 792 0
DWIDTH 11 0
BBX 10 12 1 -1
BITMAP
0080
3F80
7F00
E380
C780
CCC0
D8C0
F180
F180
7F00
FE00
8000
ENDCHAR
STARTCHAR 00D9
ENCODING 217
SWIDTH 720 0
DWIDTH 10 0
BBX 8 13 1 0
BITMAP
70
10
00
C3
C3
C3
C3
C3
C3
C3
C6
7E
3C
ENDCHAR
STARTCHAR 00DA
ENCODING 218
SWIDTH 720 0
DWIDTH 10 0
BBX 8 13 1 0
BITMAP
0C
18
00
C3
C3
C3
C3
C3
C3
C3
C6
7E
3C
ENDCHAR
STARTCHAR 00DB
ENCODING 219
SWIDTH 720 0
DWIDTH 10 0
BBX 8 13 1 0
BITMAP
18
2C
00
C3
C3
C3
C3
C3
C3
C3
C6
7E
3C
ENDCHAR
STARTCHAR 00DC
ENCODING 220
SWIDTH 720 0
DWIDTH 10 0
BBX 8 13 1 0
BITMAP
64
64
00
C3
C3
C3
C3
C3
C3
C3
C6
7E
3C
ENDCHAR
STARTCHAR 00DD
ENCODING 221
SWIDTH 648 0
DWIDTH 9 0
BBX 9 13 0 0
BITMAP
0600
0C00
0000
E180
6300
3600
3600
1C00
1C00
0800
0800
0800
0800
ENDCHAR
STARTCHAR 00DE
ENCODING 222
SWIDTH 576 0
DWIDTH 8 0
BBX 7 10 1 0
BITMAP
C0
C0
FC
FE
C6
C6
FE
FC
C0
C0
ENDCHAR
STARTCHAR 00DF
ENCODING 223
SWIDTH 576 0
DWIDTH 8 0
BBX 7 10 1 0
BITMAP
78
FC
C4
CC
D8
D8
DE
C6
F6
DC
ENDCHAR
STARTCHAR 00E0
ENCODING 224
SWIDTH 504 0
DWIDTH 7 0
BBX 6 10 1 0
BITMAP
60
20
00
78
F8
0C
FC
CC
DC
EC
ENDCHAR
STARTCHAR 00E1
ENCODING 225
SWIDTH 504 0
DWIDTH 7 0
BBX 6 10 1 0
BITMAP
18
30
00
78
F8
0C
FC
CC
DC
EC
ENDCHAR
STARTCHAR 00E2
ENCODING 226
SWIDTH 504 0
DWIDTH 7 0
BBX 6 10 1 0
BITMAP
70
58
00
78
F8
0C
FC
CC
DC
EC
ENDCHAR
STARTCHAR 00E3
ENCODING 227
SWIDTH 504 0
DWIDTH 7 0
BBX 6 10 1 0
BITMAP
60
F8
10
78
F8
0C
FC
CC
DC
EC
ENDCHAR
STARTCHAR 00E4
ENCODING 228
SWIDTH 504 0
DWIDTH 7 0
BBX 6 10 1 0
BITMAP
D8
D8
00
78
F8
0C
FC
CC
DC
EC
ENDCHAR
STARTCHAR 00E5
ENCODING 229
SWIDTH 504 0
DWIDTH 7 0
BBX 6 11 1 0
BITMAP
30
50
50
30
78
F8
0C
FC
CC
DC
EC
ENDCHAR
STARTCHAR 00E6
ENCODING 230
SWIDTH 864 0
DWIDTH 12 0
BBX 11 7 1 0
BITMAP
7B80
DFC0
0C40
FFE0
8C00
DFC0
F380
ENDCHAR
STARTCHAR 00E7
ENCODING 231
SWIDTH 576 0
DWIDTH 8 0
BBX 7 10 0 -3
BITMAP
3C
7E
66
C0
60
7E
3C
10
0C
38
ENDCHAR
STARTCHAR 00E8
ENCODING 232
SWIDTH 576 0
DWIDTH 8 0
BBX 7 10 0 0
BITMAP
30
18
00
3C
7E
46
FE
40
7E
3C
ENDCHAR
STARTCHAR 00E9
ENCODING 233
SWIDTH 576 0
DWIDTH 8 0
BBX 7 10 0 0
BITMAP
0C
18
00
3C
7E
46
FE
40
7E
3C
ENDCHAR
STARTCHAR 00EA
ENCODING 234
SWIDTH 576 0
DWIDTH 8 0
BBX 7 10 0 0
BITMAP
18
2C
00
3C
7E
46
FE
40
7E
3C
ENDCHAR
STARTCHAR 00EB
ENCODING 235
SWIDTH 576 0
DWIDTH 8 0
BBX 7 10 0 0
BITMAP
24
24
00
3C
7E
46
FE
40
7E
3C
ENDCHAR
STARTCHAR 00EC
ENCODING 236
SWIDTH 288 0
DWIDTH 4 0
BBX 3 10 0 0
BITMAP
C0
40
00
60
60
60
60
60
60
60
ENDCHAR
STARTCHAR 00ED
ENCODING 237
SWIDTH 288 0
DWIDTH 4 0
BBX 3 10 1 0
BITMAP
60
C0
00
C0
C0
C0
C0
C0
C0
C0
ENDCHAR
STARTCHAR 00EE
ENCODING 238
SWIDTH 288 0
DWIDTH 4 0
BBX 4 10 0 0
BITMAP
60
B0
00
60
60
60
60
60
60
60
ENDCHAR
STARTCHAR 00EF
ENCODING 239
SWIDTH 288 0
DWIDTH 4 0
BBX 4 10 0 0
BITMAP
B0
B0
00
60
60
60
60
60
60
60
ENDCHAR
STARTCHAR 00F0
ENCODING 240
SWIDTH 576 0
DWIDTH 8 0
BBX 8 11 0 0
BITMAP
30
3E
1C
36
06
7E
67
C3
42
7E
3C
ENDCHAR
STARTCHAR 00F1
ENCODING 241
SWIDTH 576 0
DWIDTH 8 0
BBX 6 10 1 0
BITMAP
60
78
18
F8
FC
CC
CC
CC
CC
CC
ENDCHAR
STARTCHAR 00F2
ENCODING 242
SWIDTH 576 0
DWIDTH 8 0
BBX 8 10 0 0
BITMAP
30
18
00
3C
7E
62
C3
62
7E
3C
ENDCHAR
STARTCHAR 00F3
ENCODING 243
SWIDTH 576 0
DWIDTH 8 0
BBX 8 10 0 0
BITMAP
0C
18
00
3C
7E
62
C3
62
7E
3C
ENDCHAR
STARTCHAR 00F4
ENCODING 244
SWIDTH 576 0
DWIDTH 8 0
BBX 8 10 0 0
BITMAP
18
34
00
3C
7E
62
C3
62
7E
3C
ENDCHAR
STARTCHAR 00F5
ENCODING 245
SWIDTH 576 0
DWIDTH 8 0
BBX 8 10 0 0
BITMAP
30
3C
0C
3C
7E
62
C3
62
7E
3C
ENDCHAR
STARTCHAR 00F6
ENCODING 246
SWIDTH 576 0
DWIDTH 8 0
BBX 8 10 0 0
BITMAP
24
24
00
3C
7E
62
C3
62
7E
3C
ENDCHAR
STARTCHAR 00F7
ENCODING 247
SWIDTH 576 0
DWIDTH 8 0
BBX 6 8 1 0
BITMAP
30
30
00
FC
FC
00
30
30
ENDCHAR
STARTCHAR 00F8
ENCODING 248
SWIDTH 576 0
DWIDTH 8 0
BBX 8 9 0 -1
BITMAP
02
3E
7E
6E
DB
72
7E
7C
40
ENDCHAR
STARTCHAR 00F9
ENCODING 249
SWIDTH 576 0
DWIDTH 8 0
BBX 6 10 1 0
BITMAP
60
30
00
CC
CC
CC
CC
CC
FC
7C
ENDCHAR
STARTCHAR 00FA
ENCODING 250
SWIDTH 576 0
DWIDTH 8 0
BBX 6 10 1 0
BITMAP
18
30
00
CC
CC
CC
CC
CC
FC
7C
ENDCHAR
STARTCHAR 00FB
ENCODING 251
SWIDTH 576 0
DWIDTH 8 0
BBX 6 10 1 0
BITMAP
30
68
00
CC
CC
CC
CC
CC
FC
7C
ENDCHAR
STARTCHAR 00FC
ENCODING 252
SWIDTH 576 0
DWIDTH 8 0
BBX 6 10 1 0
BITMAP
48
48
00
CC
CC
CC
CC
CC
FC
7C
ENDCHAR
STARTCHAR 00FD
ENCODING 253
SWIDTH 576 0
DWIDTH 8 0
BBX 7 13 0 -3
BITMAP
0C
18
00
C6
66
66
3C
3C
18
18
30
30
30
ENDCHAR
STARTCHAR 00FE
ENCODING 254
SWIDTH 648 0
DWIDTH 9 0
BBX 7 13 1 -3
BITMAP
C0
C0
C0
FC
FE
C6
C6
C6
FC
FC
C0
C0
C0
ENDCHAR
STARTCHAR 00FF
ENCODING 255
SWIDTH 576 0
DWIDTH 8 0
BBX 7 13 0 -3
BITMAP
24
24
00
C6
66
66
3C
3C
18
18
30
30
30
ENDCHAR
STARTCHAR 0131
ENCODING 305
SWIDTH 288 0
DWIDTH 4 0
BBX 2 7 1 0
BITMAP
C0
C0
C0
C0
C0
C0
C0
ENDCHAR
STARTCHAR 0141
ENCODING 321
SWIDTH 576 0
DWIDTH 8 0
BBX 8 10 0 0
BITMAP
60
60
60
6C
78
E0
E0
60
7F
7F
ENDCHAR
STARTCHAR 0142
ENCODING 322
SWIDTH 360 0
DWIDTH 5 0
BBX 4 10 0 0
BITMAP
60
60
60
60
70
E0
E0
60
60
60
ENDCHAR
STARTCHAR 0152
ENCODING 338
SWIDTH 1152 0
DWIDTH 16 0
BBX 14 10 1 0
BITMAP
3EFC
7FFC
C1C0
C1C0
C0F8
C0F8
C1C0
C1C0
7FFC
3EFC
ENDCHAR
STARTCHAR 0153
ENCODING 339
SWIDTH 936 0
DWIDTH 13 0
BBX 13 7 0 0
BITMAP
3DE0
7FF0
6310
C3F8
6300
7FF0
3DE0
ENDCHAR
STARTCHAR 0160
ENCODING 352
SWIDTH 576 0
DWIDTH 8 0
BBX 7 12 1 0
BITMAP
68
30
78
FC
C6
C0
F8
3C
06
C6
FC
78
ENDCHAR
STARTCHAR 0161
ENCODING 353
SWIDTH 432 0
DWIDTH 6 0
BBX 5 10 1 0
BITMAP
D0
70
00
F0
D8
C0
F0
18
D8
F0
ENDCHAR
STARTCHAR 0178
ENCODING 376
SWIDTH 648 0
DWIDTH 9 0
BBX 9 13 0 0
BITMAP
3600
3600
0000
E180
6300
3600
3600
1C00
1C00
0800
0800
0800
0800
ENDCHAR
STARTCHAR 017D
ENCODING 381
SWIDTH 648 0
DWIDTH 9 0
BBX 7 13 1 0
BITMAP
6C
38
00
FE
FE
0E
1C
38
30
60
E0
FE
FE
ENDCHAR
STARTCHAR 017E
ENCODING 382
SWIDTH 504 0
DWIDTH 7 0
BBX 5 10 1 0
BITMAP
D0
70
00
F8
F8
30
60
E0
F8
F8
ENDCHAR
STARTCHAR 0192
ENCODING 402
SWIDTH 504 0
DWIDTH 7 0
BBX 7 14 0 -3
BITMAP
06
0E
18
18
7C
7C
30
30
30
30
30
60
E0
C0
ENDCHAR
STARTCHAR 02C6
ENCODING 710
SWIDTH 432 0
DWIDTH 6 0
BBX 4 2 1 8
BITMAP
E0
B0
ENDCHAR
STARTCHAR 02C7
ENCODING 711
SWIDTH 432 0
DWIDTH 6 0
BBX 4 2 1 8
BITMAP
B0
E0
ENDCHAR
STARTCHAR 02C9
ENCODING 713
SWIDTH 360 0
DWIDTH 5 0
BBX 4 1 0 8
BITMAP
F0
ENDCHAR
STARTCHAR 02D8
ENCODING 728
SWIDTH 360 0
DWIDTH 5 0
BBX 5 2 0 8
BITMAP
D8
70
ENDCHAR
STARTCHAR 02D9
ENCODING 729
SWIDTH 216 0
DWIDTH 3 0
BBX 2 2 0 8
BITMAP
C0
C0
ENDCHAR
STARTCHAR 02DA
ENCODING 730
SWIDTH 288 0
DWIDTH 4 0
BBX 4 4 0 7
BITMAP
60
E0
B0
60
ENDCHAR
STARTCHAR 02DB
ENCODING 731
SWIDTH 216 0
DWIDTH 3 0
BBX 3 3 0 -3
BITMAP
40
C0
60
ENDCHAR
STARTCHAR 02DC
ENCODING 732
SWIDTH 360 0
DWIDTH 5 0
BBX 5 3 0 7
BITMAP
60
F8
10
ENDCHAR
STARTCHAR 02DD
ENCODING 733
SWIDTH 432 0
DWIDTH 6 0
BBX 4 2 1 8
BITMAP
F0
A0
ENDCHAR
STARTCHAR 0394
ENCODING 916
SWIDTH 720 0
DWIDTH 10 0
BBX 9 10 0 0
BITMAP
0C00
1C00
1E00
3600
3300
3300
6300
6180
7F80
FF80
ENDCHAR
STARTCHAR 03A9
ENCODING 937
SWIDTH 792 0
DWIDTH 11 0
BBX 9 10 1 0
BITMAP
3E00
7F00
E380
C180
C180
C180
C380
7700
F780
F780
ENDCHAR
STARTCHAR 03BC
ENCODING 956
SWIDTH 576 0
DWIDTH 8 0
BBX 6 10 1 -3
BITMAP
CC
CC
CC
CC
CC
FC
FC
C0
C0
C0
ENDCHAR
STARTCHAR 03C0
ENCODING 960
SWIDTH 648 0
DWIDTH 9 0
BBX 8 7 0 0
BITMAP
FF
FF
26
26
26
27
23
ENDCHAR
STARTCHAR 2007
ENCODING 8199
SWIDTH 648 0
DWIDTH 9 0
BBX 0 0 0 0
BITMAP
ENDCHAR
STARTCHAR 2008
ENCODING 8200
SWIDTH 288 0
DWIDTH 4 0
BBX 0 0 0 0
BITMAP
ENDCHAR
STARTCHAR 200B
ENCODING 8203
SWIDTH 0 0
DWIDTH 0 0
BBX 0 0 0 0
BITMAP
ENDCHAR
STARTCHAR 2013
ENCODING 8211
SWIDTH 648 0
DWIDTH 9 0
BBX 7 2 1 3
BITMAP
FE
FE
ENDCHAR
STARTCHAR 2014
ENCODING 8212
SWIDTH 1080 0
DWIDTH 15 0
BBX 13 2 1 3
BITMAP
FFF8
FFF8
ENDCHAR
STARTCHAR 2018
ENCODING 8216
SWIDTH 216 0
DWIDTH 3 0
BBX 3 4 0 6
BITMAP
60
40
E0
60
ENDCHAR
STARTCHAR 2019
ENCODING 8217
SWIDTH 216 0
DWIDTH 3 0
BBX 2 4 1 6
BITMAP
C0
C0
40
80
ENDCHAR
STARTCHAR 201A
ENCODING 8218
SWIDTH 216 0
DWIDTH 3 0
BBX 2 4 1 -2
BITMAP
C0
C0
40
80
ENDCHAR
STARTCHAR 201C
ENCODING 8220
SWIDTH 432 0
DWIDTH 6 0
BBX 5 4 0 6
BITMAP
68
50
F8
78
ENDCHAR
STARTCHAR 201D
ENCODING 8221
SWIDTH 432 0
DWIDTH 6 0
BBX 4 4 1 6
BITMAP
F0
F0
50
B0
ENDCHAR
STARTCHAR 201E
ENCODING 8222
SWIDTH 432 0
DWIDTH 6 0
BBX 4 4 1 -2
BITMAP
F0
F0
50
B0
ENDCHAR
STARTCHAR 2020
ENCODING 8224
SWIDTH 432 0
DWIDTH 6 0
BBX 5 8 0 2
BITMAP
30
30
F8
30
30
30
30
30
ENDCHAR
STARTCHAR 2021
ENCODING 8225
SWIDTH 432 0
DWIDTH 6 0
BBX 5 10 1 0
BITMAP
60
60
F8
60
60
60
60
F8
60
60
ENDCHAR
STARTCHAR 2022
ENCODING 8226
SWIDTH 504 0
DWIDTH 7 0
BBX 6 6 1 1
BITMAP
70
F8
FC
FC
F8
70
ENDCHAR
STARTCHAR 2026
ENCODING 8230
SWIDTH 936 0
DWIDTH 13 0
BBX 11 2 1 0
BITMAP
CC60
CC60
ENDCHAR
STARTCHAR 2030
ENCODING 8240
SWIDTH 1080 0
DWIDTH 15 0
BBX 13 9 1 0
BITMAP
E180
9300
9200
F400
0C00
1BF8
1248
3268
61B8
ENDCHAR
STARTCHAR 2039
ENCODING 8249
SWIDTH 288 0
DWIDTH 4 0
BBX 3 6 1 1
BITMAP
60
C0
80
80
C0
60
ENDCHAR
STARTCHAR 203A
ENCODING 8250
SWIDTH 288 0
DWIDTH 4 0
BBX 3 6 1 1
BITMAP
80
C0
60
60
C0
80
ENDCHAR
STARTCHAR 2042
ENCODING 8258
SWIDTH 864 0
DWIDTH 12 0
BBX 10 10 1 0
BITMAP
0800
1A00
1E00
1C00
1400
6100
F340
F7C0
E380
A280
ENDCHAR
STARTCHAR 2044
ENCODING 8260
SWIDTH 576 0
DWIDTH 8 0
BBX 8 9 0 0
BITMAP
03
06
04
08
18
30
20
60
C0
ENDCHAR
STARTCHAR 2051
ENCODING 8273
SWIDTH 432 0
DWIDTH 6 0
BBX 4 10 1 0
BITMAP
60
F0
F0
60
90
60
F0
F0
60
90
ENDCHAR
STARTCHAR 2070
ENCODING 8304
SWIDTH 432 0
DWIDTH 6 0
BBX 4 5 1 5
BITMAP
60
90
90
90
F0
ENDCHAR
STARTCHAR 2074
ENCODING 8308
SWIDTH 432 0
DWIDTH 6 0
BBX 4 5 1 5
BITMAP
30
70
B0
F0
30
ENDCHAR
STARTCHAR 2075
ENCODING 8309
SWIDTH 432 0
DWIDTH 6 0
BBX 4 5 1 5
BITMAP
F0
80
F0
90
E0
ENDCHAR
STARTCHAR 2076
ENCODING 8310
SWIDTH 432 0
DWIDTH 6 0
BBX 4 5 1 5
BITMAP
70
C0
F0
90
F0
ENDCHAR
STARTCHAR 2077
ENCODING 8311
SWIDTH 432 0
DWIDTH 6 0
BBX 4 5 1 5
BITMAP
F0
30
60
40
40
ENDCHAR
STARTCHAR 2078
ENCODING 8312
SWIDTH 432 0
DWIDTH 6 0
BBX 4 5 1 5
BITMAP
E0
90
60
90
F0
ENDCHAR
STARTCHAR 2079
ENCODING 8313
SWIDTH 432 0
DWIDTH 6 0
BBX 4 5 1 5
BITMAP
E0
90
F0
30
E0
ENDCHAR
STARTCHAR 2080
ENCODING 8320
SWIDTH 432 0
DWIDTH 6 0
BBX 4 5 1 -1
BITMAP
F0
90
90
90
F0
ENDCHAR
STARTCHAR 2081
ENCODING 8321
SWIDTH 288 0
DWIDTH 4 0
BBX 2 5 1 -1
BITMAP
40
C0
40
40
40
ENDCHAR
STARTCHAR 2082
ENCODING 8322
SWIDTH 360 0
DWIDTH 5 0
BBX 4 5 1 -1
BITMAP
E0
B0
20
C0
F0
ENDCHAR
STARTCHAR 2083
ENCODING 8323
SWIDTH 432 0
DWIDTH 6 0
BBX 4 5 1 -1
BITMAP
F0
20
70
90
F0
ENDCHAR
STARTCHAR 2084
ENCODING 8324
SWIDTH 432 0
DWIDTH 6 0
BBX 4 5 1 -1
BITMAP
30
70
B0
F0
30
ENDCHAR
STARTCHAR 2085
ENCODING 8325
SWIDTH 432 0
DWIDTH 6 0
BBX 4 5 1 -1
BITMAP
F0
80
F0
90
E0
ENDCHAR
STARTCHAR 2086
ENCODING 8326
SWIDTH 432 0
DWIDTH 6 0
BBX 4 5 1 -1
BITMAP
70
C0
F0
90
F0
ENDCHAR
STARTCHAR 2087
ENCODING 8327
SWIDTH 432 0
DWIDTH 6 0
BBX 4 5 1 -1
BITMAP
F0
30
60
40
40
ENDCHAR
STARTCHAR 2088
ENCODING 8328
SWIDTH 432 0
DWIDTH 6 0
BBX 4 6 1 -2
BITMAP
E0
90
60
B0
90
F0
ENDCHAR
STARTCHAR 2089
ENCODING 8329
SWIDTH 432 0
DWIDTH 6 0
BBX 4 5 1 -1
BITMAP
E0
90
F0
30
E0
ENDCHAR
STARTCHAR 20AC
ENCODING 8364
SWIDTH 648 0
DWIDTH 9 0
BBX 8 9 1 0
BITMAP
1F
3E
70
FE
60
FC
60
3F
1F
ENDCHAR
STARTCHAR 2113
ENCODING 8467
SWIDTH 432 0
DWIDTH 6 0
BBX 6 9 0 0
BITMAP
38
78
6C
78
78
F0
E0
78
38
ENDCHAR
STARTCHAR 2122
ENCODING 8482
SWIDTH 864 0
DWIDTH 12 0
BBX 11 5 0 5
BITMAP
FE60
2760
2760
27A0
26A0
ENDCHAR
STARTCHAR 2126
ENCODING 8486
SWIDTH 792 0
DWIDTH 11 0
BBX 9 10 1 0
BITMAP
3E00
7F00
E380
C180
C180
C180
C380
7700
F780
F780
ENDCHAR
STARTCHAR 2160
ENCODING 8544
SWIDTH 504 0
DWIDTH 7 0
BBX 5 9 1 0
BITMAP
F8
F8
60
60
60
60
60
F8
F8
ENDCHAR
STARTCHAR 2161
ENCODING 8545
SWIDTH 792 0
DWIDTH 11 0
BBX 9 9 1 0
BITMAP
FF80
FF80
2600
2600
2600
2600
2600
FF80
FF80
ENDCHAR
STARTCHAR 2162
ENCODING 8546
SWIDTH 1080 0
DWIDTH 15 0
BBX 13 9 1 0
BITMAP
FFF8
FFF8
2660
2660
2660
2660
2660
FFF8
FFF8
ENDCHAR
STARTCHAR 2163
ENCODING 8547
SWIDTH 1080 0
DWIDTH 15 0
BBX 13 9 1 0
BITMAP
FFF8
FFF8
6660
6660
6660
63C0
63C0
FFF8
FFF8
ENDCHAR
STARTCHAR 2164
ENCODING 8548
SWIDTH 792 0
DWIDTH 11 0
BBX 10 9 1 0
BITMAP
FFC0
FFC0
6300
3200
3600
3600
1E00
FFC0
FFC0
ENDCHAR
STARTCHAR 2165
ENCODING 8549
SWIDTH 1080 0
DWIDTH 15 0
BBX 13 9 1 0
BITMAP
FFF8
FFF8
6360
3360
3660
3660
1E60
FFF8
FFF8
ENDCHAR
STARTCHAR 2166
ENCODING 8550
SWIDTH 1296 0
DWIDTH 18 0
BBX 17 9 1 0
BITMAP
FFFF80
FFFF80
636600
336600
366600
366600
1E6600
FFFF80
FFFF80
ENDCHAR
STARTCHAR 2167
ENCODING 8551
SWIDTH 1584 0
DWIDTH 22 0
BBX 20 9 1 0
BITMAP
FFFFF0
FFFFF0
636660
326660
366660
366660
1E6660
FFFFF0
FFFFF0
ENDCHAR
STARTCHAR 2168
ENCODING 8552
SWIDTH 1008 0
DWIDTH 14 0
BBX 13 9 1 0
BITMAP
FFF8
FFF8
66E0
63C0
6180
63C0
66C0
FFF8
FFF8
ENDCHAR
STARTCHAR 2169
ENCODING 8553
SWIDTH 792 0
DWIDTH 11 0
BBX 9 9 1 0
BITMAP
FF80
FF80
3600
3C00
1C00
1C00
3600
FF80
FF80
ENDCHAR
STARTCHAR 216C
ENCODING 8556
SWIDTH 648 0
DWIDTH 9 0
BBX 7 9 1 0
BITMAP
F8
F8
60
60
60
62
62
FE
FE
ENDCHAR
STARTCHAR 216D
ENCODING 8557
SWIDTH 720 0
DWIDTH 10 0
BBX 9 9 1 0
BITMAP
3D80
7F80
C380
C000
8000
C180
C380
7F80
3D80
ENDCHAR
STARTCHAR 216E
ENCODING 8558
SWIDTH 720 0
DWIDTH 10 0
BBX 9 9 1 0
BITMAP
FC00
FF00
6300
6180
6180
6180
6300
FF00
FC00
ENDCHAR
STARTCHAR 216F
ENCODING 8559
SWIDTH 1080 0
DWIDTH 15 0
BBX 13 9 1 0
BITMAP
F0F8
F0F8
78E0
79E0
6DE0
6F60
6760
F7F8
F6F8
ENDCHAR
STARTCHAR 2190
ENCODING 8592
SWIDTH 1080 0
DWIDTH 15 0
BBX 14 6 0 1
BITMAP
1000
3000
FFFC
7FFC
3000
1000
ENDCHAR
STARTCHAR 2191
ENCODING 8593
SWIDTH 504 0
DWIDTH 7 0
BBX 6 13 1 -2
BITMAP
20
70
F8
FC
20
20
20
20
20
20
20
20
20
ENDCHAR
STARTCHAR 2192
ENCODING 8594
SWIDTH 1080 0
DWIDTH 15 0
BBX 14 6 0 1
BITMAP
0020
0038
FFFC
FFFC
0030
0020
ENDCHAR
STARTCHAR 2193
ENCODING 8595
SWIDTH 504 0
DWIDTH 7 0
BBX 6 13 0 -2
BITMAP
30
30
30
30
30
30
30
30
30
FC
78
30
10
ENDCHAR
STARTCHAR 2196
ENCODING 8598
SWIDTH 864 0
DWIDTH 12 0
BBX 9 10 1 0
BITMAP
F000
E000
E000
B000
1800
0C00
0600
0300
0180
0080
ENDCHAR
STARTCHAR 2197
ENCODING 8599
SWIDTH 792 0
DWIDTH 11 0
BBX 9 10 0 0
BITMAP
0780
0380
0380
0680
0C00
1800
3000
6000
C000
8000
ENDCHAR
STARTCHAR 2198
ENCODING 8600
SWIDTH 864 0
DWIDTH 12 0
BBX 10 10 1 0
BITMAP
8000
C000
6000
3000
1800
0C00
0640
03C0
01C0
03C0
ENDCHAR
STARTCHAR 2199
ENCODING 8601
SWIDTH 720 0
DWIDTH 10 0
BBX 10 10 0 0
BITMAP
0040
00C0
0180
0300
0600
8C00
D800
F000
F000
F800
ENDCHAR
STARTCHAR 21A9
ENCODING 8617
SWIDTH 864 0
DWIDTH 12 0
BBX 12 8 0 1
BITMAP
03C0
03E0
0030
2030
7FE0
FFC0
6000
2000
ENDCHAR
STARTCHAR 21B0
ENCODING 8624
SWIDTH 792 0
DWIDTH 11 0
BBX 9 10 1 0
BITMAP
2000
6000
FF80
FF80
6180
2180
0180
0180
0180
0180
ENDCHAR
STARTCHAR 21B1
ENCODING 8625
SWIDTH 720 0
DWIDTH 10 0
BBX 10 10 0 0
BITMAP
0200
0100
FF80
FFC0
C180
C100
C000
C000
C000
C000
ENDCHAR
STARTCHAR 21B2
ENCODING 8626
SWIDTH 792 0
DWIDTH 11 0
BBX 10 10 0 0
BITMAP
00C0
00C0
00C0
00C0
20C0
60C0
FFC0
7FC0
2000
2000
ENDCHAR
STARTCHAR 21B3
ENCODING 8627
SWIDTH 864 0
DWIDTH 12 0
BBX 9 10 1 0
BITMAP
C000
C000
C000
C000
C200
C300
FF80
FF80
0300
0200
ENDCHAR
STARTCHAR 21B4
ENCODING 8628
SWIDTH 792 0
DWIDTH 11 0
BBX 10 10 1 0
BITMAP
FF00
FF00
0300
0300
0300
0300
0FC0
0780
0300
0200
ENDCHAR
STARTCHAR 21C6
ENCODING 8646
SWIDTH 1152 0
DWIDTH 16 0
BBX 14 12 1 -1
BITMAP
1000
3000
7FFC
FFFC
7000
1000
0010
0018
FFFC
FFFC
0018
0020
ENDCHAR
STARTCHAR 2202
ENCODING 8706
SWIDTH 648 0
DWIDTH 9 0
BBX 8 10 0 0
BITMAP
7C
7E
03
1B
7F
63
C3
63
7E
3C
ENDCHAR
STARTCHAR 2206
ENCODING 8710
SWIDTH 720 0
DWIDTH 10 0
BBX 9 10 0 0
BITMAP
0C00
1C00
1E00
3600
3300
3300
6300
6180
7F80
FF80
ENDCHAR
STARTCHAR 220F
ENCODING 8719
SWIDTH 720 0
DWIDTH 10 0
BBX 7 10 1 0
BITMAP
FE
FE
C6
C6
C6
C6
C6
C6
C6
C6
ENDCHAR
STARTCHAR 2211
ENCODING 8721
SWIDTH 576 0
DWIDTH 8 0
BBX 8 10 0 0
BITMAP
FF
FF
70
38
1C
0C
38
70
FF
FF
ENDCHAR
STARTCHAR 2212
ENCODING 8722
SWIDTH 576 0
DWIDTH 8 0
BBX 6 2 1 3
BITMAP
FC
FC
ENDCHAR
STARTCHAR 2215
ENCODING 8725
SWIDTH 432 0
DWIDTH 6 0
BBX 6 9 0 0
BITMAP
0C
08
18
10
30
20
60
40
C0
ENDCHAR
STARTCHAR 2219
ENCODING 8729
SWIDTH 288 0
DWIDTH 4 0
BBX 2 2 1 3
BITMAP
C0
C0
ENDCHAR
STARTCHAR 221A
ENCODING 8730
SWIDTH 720 0
DWIDTH 10 0
BBX 9 12 1 0
BITMAP
0380
0380
0600
0600
0400
CC00
CC00
C800
7800
7800
3000
3000
ENDCHAR
STARTCHAR 221E
ENCODING 8734
SWIDTH 864 0
DWIDTH 12 0
BBX 10 6 1 1
BITMAP
2100
FF80
9CC0
9CC0
F780
2100
ENDCHAR
STARTCHAR 222B
ENCODING 8747
SWIDTH 360 0
DWIDTH 5 0
BBX 5 13 0 -3
BITMAP
38
38
20
60
60
60
60
60
60
60
60
E0
C0
ENDCHAR
STARTCHAR 2248
ENCODING 8776
SWIDTH 576 0
DWIDTH 8 0
BBX 7 6 1 1
BITMAP
40
FE
9C
40
FE
88
ENDCHAR
STARTCHAR 2260
ENCODING 8800
SWIDTH 576 0
DWIDTH 8 0
BBX 7 6 1 1
BITMAP
0C
FE
1E
30
FE
40
ENDCHAR
STARTCHAR 2264
ENCODING 8804
SWIDTH 576 0
DWIDTH 8 0
BBX 6 8 1 0
BITMAP
0C
7C
E0
F0
3C
04
FC
FC
ENDCHAR
STARTCHAR 2265
ENCODING 8805
SWIDTH 576 0
DWIDTH 8 0
BBX 6 8 1 0
BITMAP
80
F0
1C
7C
E0
00
FC
FC
ENDCHAR
STARTCHAR 22C5
ENCODING 8901
SWIDTH 288 0
DWIDTH 4 0
BBX 2 2 1 3
BITMAP
C0
C0
ENDCHAR
STARTCHAR 24C5
ENCODING 9413
SWIDTH 792 0
DWIDTH 11 0
BBX 10 10 1 0
BITMAP
3E00
6300
DE80
92C0
9240
9E40
90C0
D080
6300
3E00
ENDCHAR
STARTCHAR 25A0
ENCODING 9632
SWIDTH 936 0
DWIDTH 13 0
BBX 10 10 1 0
BITMAP
FFC0
FFC0
FFC0
FFC0
FFC0
FFC0
FFC0
FFC0
FFC0
FFC0
ENDCHAR
STARTCHAR 25A1
ENCODING 9633
SWIDTH 936 0
DWIDTH 13 0
BBX 10 10 1 0
BITMAP
FFC0
FFC0
C040
C040
C040
C040
C040
C040
FFC0
FFC0
ENDCHAR
STARTCHAR 25B2
ENCODING 9650
SWIDTH 864 0
DWIDTH 12 0
BBX 11 10 0 0
BITMAP
0400
0600
0E00
0F00
1F00
1F80
3FC0
7FC0
7FE0
FFE0
ENDCHAR
STARTCHAR 25B3
ENCODING 9651
SWIDTH 864 0
DWIDTH 12 0
BBX 11 10 0 0
BITMAP
0400
0600
0E00
0F00
1900
1180
30C0
60C0
7FE0
FFE0
ENDCHAR
STARTCHAR 25CA
ENCODING 9674
SWIDTH 648 0
DWIDTH 9 0
BBX 7 10 1 0
BITMAP
38
78
6C
CC
C6
C6
CC
6C
78
38
ENDCHAR
STARTCHAR 25CB
ENCODING 9675
SWIDTH 792 0
DWIDTH 11 0
BBX 10 10 1 0
BITMAP
3E00
7F00
C180
80C0
80C0
80C0
80C0
C180
7F00
3E00
ENDCHAR
STARTCHAR 25CF
ENCODING 9679
SWIDTH 792 0
DWIDTH 11 0
BBX 10 10 1 0
BITMAP
3E00
7F00
FF80
FFC0
FFC0
FFC0
FFC0
FF80
7F00
3E00
ENDCHAR
STARTCHAR 262E
ENCODING 9774
SWIDTH 792 0
DWIDTH 11 0
BBX 10 10 1 0
BITMAP
3E00
7F00
C980
88C0
9CC0
BEC0
EBC0
C980
7F00
3E00
ENDCHAR
STARTCHAR 2713
ENCODING 10003
SWIDTH 936 0
DWIDTH 13 0
BBX 12 10 0 0
BITMAP
0010
0030
0070
00E0
01C0
C380
6300
3600
1C00
0800
ENDCHAR
STARTCHAR 2715
ENCODING 10005
SWIDTH 720 0
DWIDTH 10 0
BBX 9 10 1 0
BITMAP
8080
C180
6300
3600
1C00
1C00
3600
6300
C180
8080
ENDCHAR
STARTCHAR 2780
ENCODING 10112
SWIDTH 792 0
DWIDTH 11 0
BBX 10 10 1 0
BITMAP
3E00
6300
C080
9CC0
8C40
8C40
8CC0
C080
6300
3E00
ENDCHAR
STARTCHAR 2781
ENCODING 10113
SWIDTH 792 0
DWIDTH 11 0
BBX 10 10 1 0
BITMAP
3E00
6100
DC80
96C0
8C40
9840
9EC0
C080
6300
1E00
ENDCHAR
STARTCHAR 2782
ENCODING 10114
SWIDTH 792 0
DWIDTH 11 0
BBX 10 10 1 0
BITMAP
1E00
6300
C080
9E80
8C40
8E40
96C0
9C80
6180
3E00
ENDCHAR
STARTCHAR 2783
ENCODING 10115
SWIDTH 792 0
DWIDTH 11 0
BBX 10 10 1 0
BITMAP
3E00
6100
CC80
9CC0
B440
BE40
84C0
C080
6300
1E00
ENDCHAR
STARTCHAR 2784
ENCODING 10116
SWIDTH 792 0
DWIDTH 11 0
BBX 10 10 1 0
BITMAP
1E00
6300
C080
9CC0
9040
9E40
B6C0
9C80
6180
3E00
ENDCHAR
STARTCHAR 2785
ENCODING 10117
SWIDTH 792 0
DWIDTH 11 0
BBX 10 10 1 0
BITMAP
3E00
6100
CC80
90C0
BC40
B640
B6C0
9C80
6100
3E00
ENDCHAR
STARTCHAR 2786
ENCODING 10118
SWIDTH 792 0
DWIDTH 11 0
BBX 10 10 1 0
BITMAP
1E00
6300
C080
9EC0
8440
8840
88C0
D880
6100
3E00
ENDCHAR
STARTCHAR 2787
ENCODING 10119
SWIDTH 792 0
DWIDTH 11 0
BBX 10 10 1 0
BITMAP
3E00
6100
DC80
96C0
9C40
9E40
96C0
9C80
6180
3E00
ENDCHAR
STARTCHAR 2788
ENCODING 10120
SWIDTH 792 0
DWIDTH 11 0
BBX 10 10 1 0
BITMAP
3E00
6100
DC80
96C0
9640
9E40
86C0
9C80
6180
3E00
ENDCHAR
STARTCHAR E000
ENCODING 57344
SWIDTH 720 0
DWIDTH 10 0
BBX 10 10 0 0
BITMAP
3FC0
3FC0
3000
3000
3000
3000
FC00
7800
3000
1000
ENDCHAR
STARTCHAR E001
ENCODING 57345
SWIDTH 1080 0
DWIDTH 15 0
BBX 14 10 1 0
BITMAP
0780
1F80
3030
3078
20FC
F830
7030
2060
07C0
0780
ENDCHAR
STARTCHAR E002
ENCODING 57346
SWIDTH 936 0
DWIDTH 13 0
BBX 12 10 1 0
BITMAP
1E00
7C00
C0C0
C1E0
83F0
80C0
C0C0
C180
7F00
1E00
ENDCHAR
STARTCHAR FB00
ENCODING 64256
SWIDTH 648 0
DWIDTH 9 0
BBX 9 11 0 0
BITMAP
1880
3B80
6300
6300
FF80
FF80
6300
6300
6300
6300
6300
ENDCHAR
STARTCHAR FB01
ENCODING 64257
SWIDTH 648 0
DWIDTH 9 0
BBX 8 11 0 0
BITMAP
18
3B
62
60
FF
FF
63
63
63
63
63
ENDCHAR
STARTCHAR FB02
ENCODING 64258
SWIDTH 648 0
DWIDTH 9 0
BBX 8 10 0 0
BITMAP
3B
7B
63
FF
FF
63
63
63
63
63
ENDCHAR
STARTCHAR FB03
ENCODING 64259
SWIDTH 936 0
DWIDTH 13 0
BBX 12 11 0 0
BITMAP
1990
3BB0
6310
6300
FFF0
FFF0
6330
6330
6330
6330
6330
ENDCHAR
STARTCHAR FB04
ENCODING 64260
SWIDTH 936 0
DWIDTH 13 0
BBX 12 10 0 0
BITMAP
39B0
7BB0
6330
FFF0
FFF0
6330
6330
6330
6330
6330
ENDCHAR
STARTCHAR FEFF
ENCODING 65279
SWIDTH 0 0
DWIDTH 0 0
BBX 0 0 0 0
BITMAP
ENDCHAR
ENDFONT
